# Blender v2.83.2 OBJ File: ''
# www.blender.org
o Cube
v -0.100000 0.100000 -0.150000
v -0.100000 -0.100000 -0.150000
v 0.100000 0.100000 -0.150000
v 0.100000 -0.100000 -0.150000
v -0.100000 0.100000 0.150000
v -0.100000 -0.100000 0.150000
v 0.100000 0.100000 0.150000
v 0.100000 -0.100000 0.150000
v 0.060986 0.060121 -0.149281
v 0.060986 -0.060121 -0.149281
v -0.060986 0.060121 -0.149281
v -0.060986 -0.060121 -0.149281
v 0.100000 0.100000 -0.210719
v 0.100000 -0.100000 -0.210719
v -0.100000 0.100000 -0.210719
v -0.100000 -0.100000 -0.210719
vt 0.625000 0.500000
vt 0.875000 0.500000
vt 0.875000 0.750000
vt 0.625000 0.750000
vt 0.375000 0.750000
vt 0.625000 1.000000
vt 0.375000 1.000000
vt 0.375000 0.000000
vt 0.625000 0.000000
vt 0.625000 0.250000
vt 0.375000 0.250000
vt 0.125000 0.500000
vt 0.375000 0.500000
vt 0.125000 0.750000
vt 0.625000 0.500000
vt 0.875000 0.500000
vt 0.875000 0.750000
vt 0.625000 0.750000
vt 0.375000 0.750000
vt 0.625000 1.000000
vt 0.375000 1.000000
vt 0.375000 0.000000
vt 0.625000 0.000000
vt 0.625000 0.250000
vt 0.375000 0.250000
vt 0.125000 0.500000
vt 0.375000 0.500000
vt 0.125000 0.750000
vn 0.0000 1.0000 -0.0000
vn 1.0000 0.0000 -0.0000
vn 0.0000 0.0000 1.0000
vn 0.0000 -1.0000 -0.0000
vn 0.0000 0.0000 -1.0000
vn -1.0000 0.0000 0.0000
vn -0.0000 0.8388 0.5445
vn -0.8442 0.0000 0.5361
vn -0.0000 -0.8388 0.5445
vn 0.8442 0.0000 0.5361
s off
f 1/1/1 5/2/1 7/3/1 3/4/1
f 4/5/2 3/4/2 7/6/2 8/7/2
f 8/8/3 7/9/3 5/10/3 6/11/3
f 6/12/4 2/13/4 4/5/4 8/14/4
f 2/13/5 1/1/5 3/4/5 4/5/5
f 6/11/6 5/10/6 1/1/6 2/13/6
f 9/15/7 13/16/7 15/17/7 11/18/7
f 12/19/8 11/18/8 15/20/8 16/21/8
f 16/22/5 15/23/5 13/24/5 14/25/5
f 14/26/9 10/27/9 12/19/9 16/28/9
f 10/27/3 9/15/3 11/18/3 12/19/3
f 14/25/10 13/24/10 9/15/10 10/27/10
